<svg width="24" height="16" fill="none" xmlns="http://www.w3.org/2000/svg"><path d="M16.021 8.046l3.915 3.915-3.915 3.914-3.914-3.915 3.914-3.914z" fill="#BC4749"/><path d="M8.188 8.042l3.913 3.913-3.913 3.913-3.912-3.913 3.912-3.913z" fill="#161616"/><path fill="#BC4749" d="M12.112 4.135l3.918 3.918-3.918 3.918-3.918-3.918z"/><path fill="#BC4749" d="M4.283 4.135L8.2 8.053 4.283 11.97.365 8.053z"/><path d="M16.025.217l3.918 3.918-3.918 3.918-3.918-3.918L16.025.217z" fill="#fff"/><path d="M8.196.217l3.918 3.918-3.918 3.918-3.918-3.918L8.196.217zM19.94 4.131l3.918 3.918-3.918 3.918-3.918-3.918z" fill="#BC4749"/><path d="M12.112 4.131L16.03 8.05l-3.918 3.918L8.194 8.05l3.918-3.918z" fill="#BC4749"/></svg>